<svg width="16" height="16" viewBox="0 0 16 16" fill="none" xmlns="http://www.w3.org/2000/svg">
<g clip-path="url(#clip0_243_20590)">
<path d="M15.805 0.195191C15.68 0.0702103 15.5105 0 15.3337 0C15.1569 0 14.9874 0.0702103 14.8623 0.195191L8.00035 7.05719L1.13835 0.195191C1.01333 0.0702103 0.843789 0 0.667013 0C0.490236 0 0.320698 0.0702103 0.195679 0.195191C0.0706986 0.320209 0.000488281 0.489748 0.000488281 0.666524C0.000488281 0.8433 0.0706986 1.01284 0.195679 1.13786L7.05768 7.99986L0.195679 14.8619C0.0706986 14.9869 0.000488281 15.1564 0.000488281 15.3332C0.000488281 15.51 0.0706986 15.6795 0.195679 15.8045C0.320698 15.9295 0.490236 15.9997 0.667013 15.9997C0.843789 15.9997 1.01333 15.9295 1.13835 15.8045L8.00035 8.94252L14.8623 15.8045C14.9874 15.9295 15.1569 15.9997 15.3337 15.9997C15.5105 15.9997 15.68 15.9295 15.805 15.8045C15.93 15.6795 16.0002 15.51 16.0002 15.3332C16.0002 15.1564 15.93 14.9869 15.805 14.8619L8.94301 7.99986L15.805 1.13786C15.93 1.01284 16.0002 0.8433 16.0002 0.666524C16.0002 0.489748 15.93 0.320209 15.805 0.195191Z" fill="#475569"/>
</g>
<defs>
<clipPath id="clip0_243_20590">
<rect width="15.9997" height="15.9997" fill="white" transform="translate(0.000488281)"/>
</clipPath>
</defs>
</svg>
